Sparks-Dotline-Extrathin.ufo
<glyph name="numbersign" format="1">
	<unicode hex="0023"/>
	<advance width="440"/>
	<outline>
		<contour>
			<point x="43" y="0" type="line"/>
			<point x="123" y="0" type="line"/>
			<point x="157" y="139" type="line"/>
			<point x="232" y="139" type="line"/>
			<point x="198" y="0" type="line"/>
			<point x="278" y="0" type="line"/>
			<point x="312" y="139" type="line"/>
			<point x="389" y="139" type="line"/>
			<point x="389" y="204" type="line"/>
			<point x="327" y="204" type="line"/>
			<point x="350" y="297" type="line"/>
			<point x="428" y="297" type="line"/>
			<point x="428" y="362" type="line"/>
			<point x="366" y="362" type="line"/>
			<point x="399" y="500" type="line"/>
			<point x="319" y="500" type="line"/>
			<point x="286" y="362" type="line"/>
			<point x="211" y="362" type="line"/>
			<point x="244" y="500" type="line"/>
			<point x="164" y="500" type="line"/>
			<point x="131" y="362" type="line"/>
			<point x="53" y="362" type="line"/>
			<point x="53" y="297" type="line"/>
			<point x="115" y="297" type="line"/>
			<point x="92" y="204" type="line"/>
			<point x="15" y="204" type="line"/>
			<point x="15" y="139" type="line"/>
			<point x="77" y="139" type="line"/>
		</contour>
		<contour>
			<point x="172" y="204" type="line"/>
			<point x="195" y="297" type="line"/>
			<point x="270" y="297" type="line"/>
			<point x="247" y="204" type="line"/>
		</contour>
	</outline>
</glyph>
<glyph name="ampersand" format="1">
	<unicode hex="0026"/>
	<advance width="463"/>
	<outline>
		<contour>
			<point x="192" y="508" type="curve" smooth="yes"/>
			<point x="120" y="508"/>
			<point x="60" y="462"/>
			<point x="60" y="394" type="curve" smooth="yes"/>
			<point x="60" y="355"/>
			<point x="80" y="314"/>
			<point x="112" y="279" type="curve"/>
			<point x="45" y="245"/>
			<point x="7" y="204"/>
			<point x="7" y="136" type="curve" smooth="yes"/>
			<point x="7" y="46"/>
			<point x="69" y="-8"/>
			<point x="183" y="-8" type="curve" smooth="yes"/>
			<point x="248" y="-8"/>
			<point x="298" y="12"/>
			<point x="338" y="45" type="curve"/>
			<point x="384" y="0" type="line"/>
			<point x="488" y="0" type="line"/>
			<point x="392" y="99" type="line"/>
			<point x="420" y="144"/>
			<point x="436" y="202"/>
			<point x="440" y="269" type="curve"/>
			<point x="358" y="269" type="line"/>
			<point x="356" y="223"/>
			<point x="349" y="185"/>
			<point x="336" y="155" type="curve"/>
			<point x="230" y="265" type="line"/>
			<point x="292" y="298"/>
			<point x="319" y="340"/>
			<point x="319" y="394" type="curve" smooth="yes"/>
			<point x="319" y="463"/>
			<point x="269" y="508"/>
		</contour>
		<contour>
			<point x="137" y="392" type="curve" smooth="yes"/>
			<point x="137" y="419"/>
			<point x="158" y="442"/>
			<point x="190" y="442" type="curve" smooth="yes"/>
			<point x="224" y="442"/>
			<point x="244" y="417"/>
			<point x="244" y="390" type="curve" smooth="yes"/>
			<point x="244" y="356"/>
			<point x="228" y="334"/>
			<point x="185" y="309" type="curve"/>
			<point x="149" y="343"/>
			<point x="137" y="365"/>
		</contour>
		<contour>
			<point x="91" y="136" type="curve" smooth="yes"/>
			<point x="91" y="171"/>
			<point x="109" y="199"/>
			<point x="158" y="229" type="curve"/>
			<point x="288" y="97" type="line"/>
			<point x="260" y="73"/>
			<point x="227" y="61"/>
			<point x="189" y="61" type="curve" smooth="yes"/>
			<point x="130" y="61"/>
			<point x="91" y="92"/>
		</contour>
	</outline>
</glyph>
<glyph name="quotesingle" format="1">
	<unicode hex="0027"/>
	<advance width="169"/>
	<outline>
		<contour>
			<point x="62" y="370" type="line"/>
			<point x="107" y="370" type="line"/>
			<point x="127" y="570" type="line"/>
			<point x="42" y="570" type="line"/>
		</contour>
	</outline>
</glyph>
<glyph name="colon" format="1">
	<unicode hex="003A"/>
	<advance width="260"/>
	<outline>
		<contour>
			<point x="70" y="120" type="line"/>
			<point x="70" y="0" type="line"/>
			<point x="190" y="0" type="line"/>
			<point x="190" y="120" type="line"/>
		</contour>
		<contour>
			<point x="70" y="370" type="line"/>
			<point x="70" y="250" type="line"/>
			<point x="190" y="250" type="line"/>
			<point x="190" y="370" type="line"/>
		</contour>
	</outline>
</glyph>
<glyph name="equal" format="1">
	<unicode hex="003D"/>
	<advance width="450"/>
	<outline>
		<contour>
			<point x="65" y="144" type="line"/>
			<point x="385" y="144" type="line"/>
			<point x="385" y="209" type="line"/>
			<point x="65" y="209" type="line"/>
		</contour>
		<contour>
			<point x="65" y="286" type="line"/>
			<point x="385" y="286" type="line"/>
			<point x="385" y="351" type="line"/>
			<point x="65" y="351" type="line"/>
		</contour>
	</outline>
</glyph>
<glyph name="h" format="1">
	<unicode hex="0068"/>
	<advance width="497"/>
	<outline>
		<contour>
			<point x="52" y="0" type="line"/>
			<point x="134" y="0" type="line"/>
			<point x="134" y="218" type="line"/>
			<point x="363" y="218" type="line"/>
			<point x="363" y="0" type="line"/>
			<point x="445" y="0" type="line"/>
			<point x="445" y="500" type="line"/>
			<point x="363" y="500" type="line"/>
			<point x="363" y="290" type="line"/>
			<point x="134" y="290" type="line"/>
			<point x="134" y="500" type="line"/>
			<point x="52" y="500" type="line"/>
		</contour>
	</outline>
</glyph>
<glyph name="r" format="1">
	<unicode hex="0072"/>
	<advance width="443"/>
	<outline>
		<contour>
			<point x="345" y="0" type="line"/>
			<point x="435" y="0" type="line"/>
			<point x="323" y="207" type="line"/>
			<point x="323" y="209" type="line"/>
			<point x="382" y="232"/>
			<point x="416" y="277"/>
			<point x="416" y="346" type="curve" smooth="yes"/>
			<point x="416" y="442"/>
			<point x="355" y="500"/>
			<point x="239" y="500" type="curve" smooth="yes"/>
			<point x="52" y="500" type="line"/>
			<point x="52" y="0" type="line"/>
			<point x="134" y="0" type="line"/>
			<point x="134" y="190" type="line"/>
			<point x="245" y="190" type="line"/>
		</contour>
		<contour>
			<point x="226" y="428" type="line" smooth="yes"/>
			<point x="299" y="428"/>
			<point x="330" y="398"/>
			<point x="330" y="345" type="curve" smooth="yes"/>
			<point x="330" y="291"/>
			<point x="299" y="262"/>
			<point x="226" y="262" type="curve" smooth="yes"/>
			<point x="134" y="262" type="line"/>
			<point x="134" y="428" type="line"/>
		</contour>
	</outline>
</glyph>
<glyph name="w" format="1">
	<unicode hex="0077"/>
	<advance width="689"/>
	<outline>
		<contour>
			<point x="384" y="500" type="line"/>
			<point x="308" y="500" type="line"/>
			<point x="217" y="162" type="line" smooth="yes"/>
			<point x="212" y="145"/>
			<point x="205" y="118"/>
			<point x="200" y="96" type="curve"/>
			<point x="198" y="96" type="line"/>
			<point x="193" y="118"/>
			<point x="187" y="144"/>
			<point x="182" y="162" type="curve" smooth="yes"/>
			<point x="93" y="500" type="line"/>
			<point x="5" y="500" type="line"/>
			<point x="155" y="0" type="line"/>
			<point x="243" y="0" type="line"/>
			<point x="306" y="210" type="line" smooth="yes"/>
			<point x="316" y="244"/>
			<point x="335" y="317"/>
			<point x="343" y="357" type="curve"/>
			<point x="345" y="357" type="line"/>
			<point x="354" y="316"/>
			<point x="373" y="244"/>
			<point x="383" y="211" type="curve" smooth="yes"/>
			<point x="446" y="0" type="line"/>
			<point x="534" y="0" type="line"/>
			<point x="684" y="500" type="line"/>
			<point x="599" y="500" type="line"/>
			<point x="508" y="162" type="line" smooth="yes"/>
			<point x="503" y="145"/>
			<point x="496" y="118"/>
			<point x="491" y="96" type="curve"/>
			<point x="489" y="96" type="line"/>
			<point x="484" y="118"/>
			<point x="478" y="144"/>
			<point x="473" y="162" type="curve"/>
		</contour>
	</outline>
</glyph>
<glyph name="asciitilde" format="1">
	<unicode hex="007E"/>
	<advance width="450"/>
	<outline>
		<contour>
			<point x="354" y="335" type="line"/>
			<point x="352" y="299"/>
			<point x="333" y="276"/>
			<point x="301" y="276" type="curve" smooth="yes"/>
			<point x="253" y="276"/>
			<point x="226" y="336"/>
			<point x="147" y="336" type="curve" smooth="yes"/>
			<point x="82" y="336"/>
			<point x="41" y="287"/>
			<point x="38" y="213" type="curve"/>
			<point x="96" y="213" type="line"/>
			<point x="99" y="249"/>
			<point x="118" y="272"/>
			<point x="150" y="272" type="curve" smooth="yes"/>
			<point x="196" y="272"/>
			<point x="225" y="212"/>
			<point x="304" y="212" type="curve" smooth="yes"/>
			<point x="369" y="212"/>
			<point x="409" y="261"/>
			<point x="412" y="335" type="curve"/>
		</contour>
	</outline>
</glyph>
<glyph name="cent" format="1">
	<unicode hex="00A2"/>
	<advance width="440"/>
	<outline>
		<contour>
			<point x="156" y="-80" type="line"/>
			<point x="218" y="-80" type="line"/>
			<point x="321" y="580" type="line"/>
			<point x="259" y="580" type="line"/>
		</contour>
		<contour>
			<point x="340" y="161" type="line"/>
			<point x="331" y="104"/>
			<point x="297" y="67"/>
			<point x="239" y="67" type="curve" smooth="yes"/>
			<point x="154" y="67"/>
			<point x="114" y="141"/>
			<point x="114" y="248" type="curve"/>
			<point x="114" y="356"/>
			<point x="150" y="434"/>
			<point x="235" y="434" type="curve" smooth="yes"/>
			<point x="291" y="434"/>
			<point x="330" y="401"/>
			<point x="340" y="345" type="curve"/>
			<point x="423" y="345" type="line"/>
			<point x="409" y="446"/>
			<point x="343" y="509"/>
			<point x="239" y="509" type="curve" smooth="yes"/>
			<point x="116" y="509"/>
			<point x="30" y="416"/>
			<point x="30" y="252" type="curve" smooth="yes"/>
			<point x="30" y="89"/>
			<point x="112" y="-9"/>
			<point x="235" y="-9" type="curve" smooth="yes"/>
			<point x="339" y="-9"/>
			<point x="409" y="56"/>
			<point x="425" y="161" type="curve"/>
		</contour>
	</outline>
</glyph>
<glyph name="dieresis" format="1">
	<unicode hex="00A8"/>
	<advance width="361"/>
	<outline>
		<contour>
			<point x="50" y="670" type="line"/>
			<point x="50" y="574" type="line"/>
			<point x="146" y="574" type="line"/>
			<point x="146" y="670" type="line"/>
		</contour>
		<contour>
			<point x="215" y="670" type="line"/>
			<point x="215" y="574" type="line"/>
			<point x="311" y="574" type="line"/>
			<point x="311" y="670" type="line"/>
		</contour>
	</outline>
</glyph>
<glyph name="macron" format="1">
	<unicode hex="00AF"/>
	<advance width="361"/>
	<outline>
		<contour>
			<point x="50" y="660" type="line"/>
			<point x="50" y="594" type="line"/>
			<point x="311" y="594" type="line"/>
			<point x="311" y="660" type="line"/>
		</contour>
	</outline>
</glyph>
<glyph name="paragraph" format="1">
	<unicode hex="00B6"/>
	<advance width="436"/>
	<outline>
		<contour>
			<point x="297" y="0" type="line"/>
			<point x="359" y="0" type="line"/>
			<point x="359" y="433" type="line"/>
			<point x="426" y="433" type="line"/>
			<point x="426" y="500" type="line"/>
			<point x="168" y="500" type="line" smooth="yes"/>
			<point x="71" y="500"/>
			<point x="16" y="442"/>
			<point x="16" y="360" type="curve" smooth="yes"/>
			<point x="16" y="278"/>
			<point x="71" y="220"/>
			<point x="168" y="220" type="curve"/>
			<point x="168" y="0" type="line"/>
			<point x="230" y="0" type="line"/>
			<point x="230" y="433" type="line"/>
			<point x="297" y="433" type="line"/>
		</contour>
	</outline>
</glyph>
<glyph name="germandbls" format="1">
	<unicode hex="00DF"/>
	<advance width="437"/>
	<outline>
		<contour>
			<point x="199" y="0" type="line"/>
			<point x="235" y="0" type="line" smooth="yes"/>
			<point x="346" y="0"/>
			<point x="410" y="53"/>
			<point x="410" y="146" type="curve" smooth="yes"/>
			<point x="410" y="205"/>
			<point x="381" y="240"/>
			<point x="332" y="263" type="curve"/>
			<point x="332" y="265" type="line"/>
			<point x="367" y="283"/>
			<point x="394" y="320"/>
			<point x="394" y="368" type="curve" smooth="yes"/>
			<point x="394" y="455"/>
			<point x="330" y="500"/>
			<point x="229" y="500" type="curve" smooth="yes"/>
			<point x="125" y="500"/>
			<point x="51" y="451"/>
			<point x="51" y="357" type="curve" smooth="yes"/>
			<point x="51" y="0" type="line"/>
			<point x="133" y="0" type="line"/>
			<point x="133" y="352" type="line" smooth="yes"/>
			<point x="133" y="404"/>
			<point x="168" y="428"/>
			<point x="221" y="428" type="curve" smooth="yes"/>
			<point x="272" y="428"/>
			<point x="309" y="410"/>
			<point x="309" y="363" type="curve" smooth="yes"/>
			<point x="309" y="317"/>
			<point x="278" y="294"/>
			<point x="221" y="294" type="curve" smooth="yes"/>
			<point x="199" y="294" type="line"/>
			<point x="199" y="225" type="line"/>
			<point x="225" y="225" type="line" smooth="yes"/>
			<point x="293" y="225"/>
			<point x="325" y="201"/>
			<point x="325" y="150" type="curve" smooth="yes"/>
			<point x="325" y="99"/>
			<point x="293" y="73"/>
			<point x="225" y="73" type="curve" smooth="yes"/>
			<point x="199" y="73" type="line"/>
		</contour>
	</outline>
</glyph>
<glyph name="thorn" format="1">
	<unicode hex="00FE"/>
	<advance width="428"/>
	<outline>
		<contour>
			<point x="238" y="408" type="curve" smooth="yes"/>
			<point x="134" y="408" type="line"/>
			<point x="134" y="500" type="line"/>
			<point x="52" y="500" type="line"/>
			<point x="52" y="0" type="line"/>
			<point x="134" y="0" type="line"/>
			<point x="134" y="92" type="line"/>
			<point x="238" y="92" type="line" smooth="yes"/>
			<point x="355" y="92"/>
			<point x="416" y="152"/>
			<point x="416" y="250" type="curve" smooth="yes"/>
			<point x="416" y="348"/>
			<point x="355" y="408"/>
		</contour>
		<contour>
			<point x="225" y="336" type="line" smooth="yes"/>
			<point x="299" y="336"/>
			<point x="330" y="305"/>
			<point x="330" y="250" type="curve" smooth="yes"/>
			<point x="330" y="194"/>
			<point x="299" y="164"/>
			<point x="225" y="164" type="curve" smooth="yes"/>
			<point x="134" y="164" type="line"/>
			<point x="134" y="336" type="line"/>
		</contour>
	</outline>
</glyph>
<glyph name="Bstroke" format="1">
	<unicode hex="0243"/>
	<advance width="481"/>
	<outline>
		<contour>
			<point x="25" y="122" type="line"/>
			<point x="268" y="122" type="line"/>
			<point x="268" y="178" type="line"/>
			<point x="25" y="178" type="line"/>
		</contour>
		<component base="b" xOffset="25"/>
	</outline>
</glyph>
<glyph name="ring" format="1">
	<unicode hex="02DA"/>
	<advance width="284"/>
	<outline>
		<contour>
			<point x="142" y="556" type="curve" smooth="yes"/>
			<point x="193" y="556"/>
			<point x="234" y="595"/>
			<point x="234" y="645" type="curve" smooth="yes"/>
			<point x="234" y="695"/>
			<point x="193" y="734"/>
			<point x="142" y="734" type="curve" smooth="yes"/>
			<point x="91" y="734"/>
			<point x="50" y="695"/>
			<point x="50" y="645" type="curve" smooth="yes"/>
			<point x="50" y="595"/>
			<point x="91" y="556"/>
		</contour>
		<contour>
			<point x="142" y="604" type="curve" smooth="yes"/>
			<point x="117" y="604"/>
			<point x="100" y="621"/>
			<point x="100" y="645" type="curve" smooth="yes"/>
			<point x="100" y="669"/>
			<point x="117" y="686"/>
			<point x="142" y="686" type="curve" smooth="yes"/>
			<point x="167" y="686"/>
			<point x="184" y="669"/>
			<point x="184" y="645" type="curve" smooth="yes"/>
			<point x="184" y="621"/>
			<point x="167" y="604"/>
		</contour>
	</outline>
</glyph>
<glyph name="chart.dot" format="1">
	<advance width="170"/>
	<outline>
		<contour>
			<point x="85" y="-25" type="curve" smooth="yes"/>
			<point x="99" y="-25"/>
			<point x="110" y="-14"/>
			<point x="110" y="0" type="curve" smooth="yes"/>
			<point x="110" y="14"/>
			<point x="99" y="25"/>
			<point x="85" y="25" type="curve" smooth="yes"/>
			<point x="72" y="25"/>
			<point x="60" y="14"/>
			<point x="60" y="0" type="curve" smooth="yes"/>
			<point x="60" y="-14"/>
			<point x="72" y="-25"/>
		</contour>
	</outline>
</glyph>
<glyph name="circle.w" format="1">
	<advance width="565"/>
	<outline>
		<contour>
			<point x="282" y="-12" type="curve" smooth="yes"/>
			<point x="430" y="-12"/>
			<point x="545" y="102"/>
			<point x="545" y="250" type="curve" smooth="yes"/>
			<point x="545" y="398"/>
			<point x="430" y="512"/>
			<point x="282" y="512" type="curve" smooth="yes"/>
			<point x="134" y="512"/>
			<point x="20" y="398"/>
			<point x="20" y="250" type="curve" smooth="yes"/>
			<point x="20" y="102"/>
			<point x="134" y="-12"/>
		</contour>
		<contour>
			<point x="308" y="374" type="line"/>
			<point x="344" y="218" type="line"/>
			<point x="352" y="182" type="line"/>
			<point x="355" y="182" type="line"/>
			<point x="364" y="218" type="line"/>
			<point x="400" y="374" type="line"/>
			<point x="452" y="374" type="line"/>
			<point x="380" y="118" type="line"/>
			<point x="326" y="118" type="line"/>
			<point x="297" y="234" type="line" smooth="yes"/>
			<point x="284" y="295" type="line"/>
			<point x="281" y="295" type="line"/>
			<point x="267" y="234" type="line"/>
			<point x="239" y="118" type="line"/>
			<point x="185" y="118" type="line"/>
			<point x="113" y="374" type="line"/>
			<point x="166" y="374" type="line"/>
			<point x="202" y="218" type="line" smooth="yes"/>
			<point x="210" y="182" type="line"/>
			<point x="213" y="182" type="line"/>
			<point x="222" y="218" type="line"/>
			<point x="259" y="374" type="line"/>
		</contour>
	</outline>
</glyph>
<glyph name="line.up.004" format="1">
	<advance width="350"/>
	<outline>
		<contour>
			<point x="85" y="-13" type="line"/>
			<point x="435" y="15" type="line"/>
			<point x="435" y="41" type="line"/>
			<point x="85" y="13" type="line"/>
		</contour>
		<component base="chart.dot"/>
	</outline>
</glyph>
<glyph name="line.up.018" format="1">
	<advance width="350"/>
	<outline>
		<contour>
			<point x="85" y="-14" type="line"/>
			<point x="435" y="112" type="line"/>
			<point x="435" y="140" type="line"/>
			<point x="85" y="14" type="line"/>
		</contour>
		<component base="chart.dot"/>
	</outline>
</glyph>
<glyph name="line.up.028" format="1">
	<advance width="350"/>
	<outline>
		<contour>
			<point x="85" y="-15" type="line"/>
			<point x="435" y="181" type="line"/>
			<point x="435" y="211" type="line"/>
			<point x="85" y="15" type="line"/>
		</contour>
		<component base="chart.dot"/>
	</outline>
</glyph>
<glyph name="line.up.064" format="1">
	<advance width="350"/>
	<outline>
		<contour>
			<point x="85" y="-22" type="line"/>
			<point x="435" y="426" type="line"/>
			<point x="435" y="470" type="line"/>
			<point x="85" y="22" type="line"/>
		</contour>
		<component base="chart.dot"/>
	</outline>
</glyph>
<glyph name="line.up.077" format="1">
	<advance width="350"/>
	<outline>
		<contour>
			<point x="87" y="-23" type="line"/>
			<point x="437" y="516" type="line"/>
			<point x="433" y="562" type="line"/>
			<point x="83" y="23" type="line"/>
		</contour>
		<component base="chart.dot"/>
	</outline>
</glyph>
<glyph name="line.up.078" format="1">
	<advance width="350"/>
	<outline>
		<contour>
			<point x="87" y="-23" type="line"/>
			<point x="437" y="523" type="line"/>
			<point x="433" y="569" type="line"/>
			<point x="83" y="23" type="line"/>
		</contour>
		<component base="chart.dot"/>
	</outline>
</glyph>
<glyph name="line.up.082" format="1">
	<advance width="350"/>
	<outline>
		<contour>
			<point x="88" y="-22" type="line"/>
			<point x="440" y="555" type="line"/>
			<point x="432" y="596" type="line"/>
			<point x="82" y="22" type="line"/>
		</contour>
		<component base="chart.dot"/>
	</outline>
</glyph>
<glyph name="line.up.083" format="1">
	<advance width="350"/>
	<outline>
		<contour>
			<point x="88" y="-22" type="line"/>
			<point x="447" y="574" type="line"/>
			<point x="423" y="588" type="line"/>
			<point x="82" y="22" type="line"/>
		</contour>
		<component base="chart.dot"/>
	</outline>
</glyph>
<glyph name="line.up.084" format="1">
	<advance width="350"/>
	<outline>
		<contour>
			<point x="88" y="-23" type="line"/>
			<point x="447" y="580" type="line"/>
			<point x="422" y="594" type="line"/>
			<point x="81" y="21" type="line"/>
		</contour>
		<component base="chart.dot"/>
	</outline>
</glyph>
<glyph name="line.up.085" format="1">
	<advance width="350"/>
	<outline>
		<contour>
			<point x="88" y="-23" type="line"/>
			<point x="444" y="582" type="line"/>
			<point x="422" y="601" type="line"/>
			<point x="78" y="16" type="line"/>
		</contour>
		<component base="chart.dot"/>
	</outline>
</glyph>
<glyph name="line.up.086" format="1">
	<advance width="350"/>
	<outline>
		<contour>
			<point x="88" y="-24" type="line"/>
			<point x="445" y="590" type="line"/>
			<point x="421" y="607" type="line"/>
			<point x="77" y="15" type="line"/>
		</contour>
		<component base="chart.dot"/>
	</outline>
</glyph>
<glyph name="line.up.087" format="1">
	<advance width="350"/>
	<outline>
		<contour>
			<point x="88" y="-23" type="line"/>
			<point x="446" y="600" type="line"/>
			<point x="423" y="616" type="line"/>
			<point x="82" y="23" type="line"/>
		</contour>
		<component base="chart.dot"/>
	</outline>
</glyph>
<glyph name="line.up.091" format="1">
	<advance width="350"/>
	<outline>
		<contour>
			<point x="90" y="-20" type="line"/>
			<point x="445" y="626" type="line"/>
			<point x="423" y="644" type="line"/>
			<point x="80" y="20" type="line"/>
		</contour>
		<component base="chart.dot"/>
	</outline>
</glyph>
<glyph name="line.up.092" format="1">
	<advance width="350"/>
	<outline>
		<contour>
			<point x="91" y="-18" type="line"/>
			<point x="447" y="637" type="line"/>
			<point x="423" y="651" type="line"/>
			<point x="79" y="18" type="line"/>
		</contour>
		<component base="chart.dot"/>
	</outline>
</glyph>
<glyph name="line.up.093" format="1">
	<advance width="350"/>
	<outline>
		<contour>
			<point x="92" y="-17" type="line"/>
			<point x="451" y="651" type="line"/>
			<point x="427" y="666" type="line"/>
			<point x="78" y="17" type="line"/>
		</contour>
		<component base="chart.dot"/>
	</outline>
</glyph>
<glyph name="line.up.094" format="1">
	<advance width="350"/>
	<outline>
		<contour>
			<point x="93" y="-15" type="line"/>
			<point x="448" y="652" type="line"/>
			<point x="424" y="667" type="line"/>
			<point x="77" y="15" type="line"/>
		</contour>
		<component base="chart.dot"/>
	</outline>
</glyph>
<glyph name="line.up.095" format="1">
	<advance width="350"/>
	<outline>
		<contour>
			<point x="94" y="-13" type="line"/>
			<point x="449" y="662" type="line"/>
			<point x="426" y="678" type="line"/>
			<point x="76" y="13" type="line"/>
		</contour>
		<component base="chart.dot"/>
	</outline>
</glyph>
<glyph name="line.up.097" format="1">
	<advance width="350"/>
	<outline>
		<contour>
			<point x="99" y="-4" type="line"/>
			<point x="444" y="665" type="line"/>
			<point x="419" y="679" type="line"/>
			<point x="71" y="4" type="line"/>
		</contour>
		<component base="chart.dot"/>
	</outline>
</glyph>
